HIERARCHY
ROOT Hips
{
	OFFSET 0.000000 88.474243 0.000000
	CHANNELS 6 Xposition Yposition Zposition Zrotation Yrotation Xrotation 
	JOINT Hips_Spine
	{
		OFFSET 0.000000 0.000000 0.000000
		CHANNELS 3 Zrotation Yrotation Xrotation
		JOINT Spine
		{
			OFFSET 0.005100 8.711998 -0.691000
			CHANNELS 3 Zrotation Yrotation Xrotation
			JOINT Spine1
			{
				OFFSET -0.009200 8.660301 -1.275000
				CHANNELS 3 Zrotation Yrotation Xrotation
				JOINT Spine2
				{
					OFFSET 0.006300 9.852501 -1.857000
					CHANNELS 3 Zrotation Yrotation Xrotation
					JOINT Spine2_Neck
					{
						OFFSET 0.000000 0.000000 0.000000
						CHANNELS 3 Zrotation Yrotation Xrotation
						JOINT Neck
						{
							OFFSET 0.016300 11.420799 -0.263300
							CHANNELS 3 Zrotation Yrotation Xrotation
							End Site #name: Head
							{
								OFFSET -0.019200 9.262405 2.362500
							}
						}
					}
					JOINT Spine2_LeftShoulder
					{
						OFFSET 0.000000 0.000000 0.000000
						CHANNELS 3 Zrotation Yrotation Xrotation
						JOINT LeftShoulder
						{
							OFFSET 5.616900 6.732201 -0.345700
							CHANNELS 3 Zrotation Yrotation Xrotation
							JOINT LeftArm
							{
								OFFSET 10.664888 -0.183372 -2.440700
								CHANNELS 3 Zrotation Yrotation Xrotation
								JOINT LeftForeArm
								{
									OFFSET 27.459126 0.000000 0.000000
									CHANNELS 3 Zrotation Yrotation Xrotation
									End Site #name: LeftHand
									{
										OFFSET 21.306858 0.000000 0.000000
									}
								}
							}
						}
					}
					JOINT Spine2_RightShoulder
					{
						OFFSET 0.000000 0.000000 0.000000
						CHANNELS 3 Zrotation Yrotation Xrotation
						JOINT RightShoulder
						{
							OFFSET -5.580300 6.737503 -0.344400
							CHANNELS 3 Zrotation Yrotation Xrotation
							JOINT RightArm
							{
								OFFSET -10.679335 -0.188484 -2.383900
								CHANNELS 3 Zrotation Yrotation Xrotation
								JOINT RightForeArm
								{
									OFFSET -27.503529 0.000000 0.000000
									CHANNELS 3 Zrotation Yrotation Xrotation
									End Site #name: RightHand
									{
										OFFSET -21.306808 0.000000 0.000000
									}
								}
							}
						}
					}
				}
			}
		}
	}
	JOINT Hips_LeftUpLeg
	{
		OFFSET 0.000000 0.000000 0.000000
		CHANNELS 3 Zrotation Yrotation Xrotation
		JOINT LeftUpLeg
		{
			OFFSET 6.857700 -6.739601 0.312100
			CHANNELS 3 Zrotation Yrotation Xrotation
			JOINT LeftLeg
			{
				OFFSET -0.367590 -34.731552 -4.572400
				CHANNELS 3 Zrotation Yrotation Xrotation
				End Site #name: LeftFoot
				{
					OFFSET 0.367590 -34.656704 -6.067400
				}
			}
		}
	}
	JOINT Hips_RightUpLeg
	{
		OFFSET 0.000000 0.000000 0.000000
		CHANNELS 3 Zrotation Yrotation Xrotation
		JOINT RightUpLeg
		{
			OFFSET -6.876100 -6.733299 0.301000
			CHANNELS 3 Zrotation Yrotation Xrotation
			JOINT RightLeg
			{
				OFFSET 0.347353 -34.795158 -4.515900
				CHANNELS 3 Zrotation Yrotation Xrotation
				End Site #name: RightFoot
				{
					OFFSET -0.347353 -34.589367 -6.070300
				}
			}
		}
	}
}
MOTION
Frames: 14
Frame Time: 0.041667
-7.119121 0.927712 -30.629987 2.370167 -4.905992 3.978117 0.000000 0.000000 0.000000 -2.914126 3.405824 3.893601 -1.454786 0.472807 2.447211 0.000000 0.000000 0.000000 -1.442789 0.473629 2.453734 -1.775171 0.190494 -2.048305 -1.442789 0.473629 2.453734 -15.748832 -1.725287 1.170686 -44.341243 21.054470 22.720882 179.989917 -88.632102 -179.989893 -1.442789 0.473629 2.453734 12.580924 6.182094 1.901408 44.359251 -2.553143 40.709161 -0.003871 89.055756 -0.003899 0.000000 0.000000 0.000000 -9.071660 3.174280 -34.848267 4.256237 9.726131 30.737475 0.000000 0.000000 0.000000 -3.332105 -4.395696 -3.956031 -0.864153 -0.838295 30.789434 
-7.237306 0.821015 -32.146940 2.203752 -5.235551 6.658174 0.000000 0.000000 0.000000 -2.081260 4.881155 2.311061 -1.577395 0.692187 2.594025 0.000000 0.000000 0.000000 -1.556190 0.695734 2.605701 -3.415277 0.116008 -4.318459 -1.556190 0.695734 2.605701 -14.881227 0.091182 0.739641 -40.869185 24.910283 26.188162 179.999994 -85.894794 -179.999922 -1.556190 0.695734 2.605701 8.809995 6.520837 1.637971 45.951403 -1.509105 42.165141 -179.981080 89.730095 -179.981138 0.000000 0.000000 0.000000 -8.835862 1.753111 -38.679590 4.389434 9.465604 29.817059 0.000000 0.000000 0.000000 -2.347839 -5.382750 -4.557940 -0.801115 0.114901 26.982208 
-7.384900 0.459595 -33.553690 2.455572 -5.178925 8.749741 0.000000 0.000000 0.000000 -1.713488 6.418201 0.995919 -1.757454 0.912570 2.957655 0.000000 0.000000 0.000000 -1.723794 0.920593 2.975238 -4.587679 -0.205469 -6.384600 -1.723794 0.920593 2.975238 -13.076416 1.561470 0.396187 -38.153033 26.969284 29.298194 179.998437 -83.853626 -179.998211 -1.723794 0.920593 2.975238 5.513065 6.372777 1.316988 47.531250 -0.780066 42.760246 179.996021 88.511897 179.995972 0.000000 0.000000 0.000000 -9.355638 1.903098 -42.354261 4.805680 9.084771 29.982032 0.000000 0.000000 0.000000 -1.819579 -5.672628 -6.142586 -0.390948 0.663716 26.296145 
-7.563277 -0.108200 -34.696249 2.311557 -4.721685 9.798092 0.000000 0.000000 0.000000 -1.165590 7.642821 0.450633 -1.830802 1.090276 3.265309 0.000000 0.000000 0.000000 -1.785616 1.098506 3.287898 -5.343825 -0.588954 -7.922258 -1.785616 1.098506 3.287898 -10.915372 2.922125 0.111798 -37.243737 27.767462 30.905890 -179.999972 -83.122652 179.999696 -1.785616 1.098506 3.287898 3.164711 6.162407 1.080949 49.030653 -0.467457 42.714773 179.998930 87.555029 179.998915 0.000000 0.000000 0.000000 -9.856554 3.197727 -45.550051 5.616605 8.473154 32.188534 0.000000 0.000000 0.000000 -1.076546 -5.153315 -7.239331 -0.074543 0.451743 26.970173 
-7.693404 -0.720436 -35.456644 1.630178 -3.812249 10.139605 0.000000 0.000000 0.000000 -0.098110 8.264547 0.502787 -1.693156 1.184142 3.456964 0.000000 0.000000 0.000000 -1.640716 1.186844 3.481544 -6.033365 -0.847433 -8.822878 -1.640716 1.186844 3.481544 -9.394669 4.213175 -0.120722 -37.645557 27.826016 30.994686 179.999619 -83.401317 -179.999843 -1.640716 1.186844 3.481544 1.591721 6.091864 0.941679 50.746715 -0.176398 42.346556 179.998375 87.650426 179.998358 0.000000 0.000000 0.000000 -9.566482 3.874129 -47.911016 6.209878 7.952405 36.006912 0.000000 0.000000 0.000000 0.136076 -5.042133 -7.406631 -0.031212 0.218921 27.484755 
-7.719593 -1.256508 -35.805460 0.891895 -2.738145 10.217852 0.000000 0.000000 0.000000 1.192919 8.441559 0.725982 -1.436410 1.215051 3.578613 0.000000 0.000000 0.000000 -1.380536 1.209658 3.602708 -6.716135 -0.940696 -9.333235 -1.380536 1.209658 3.602708 -9.012440 5.282513 -0.298329 -38.235915 27.438836 30.347067 -179.998791 -84.032769 179.999061 -1.380536 1.209658 3.602708 0.578935 6.214682 0.869212 52.961757 0.258748 41.808320 -179.978501 89.351615 -179.978558 0.000000 0.000000 0.000000 -8.629093 3.734810 -49.237581 6.184078 7.877880 40.037579 0.000000 0.000000 0.000000 1.249047 -5.746457 -7.274923 -0.112891 0.325273 27.922517 
-7.665837 -1.625732 -35.746515 0.456261 -2.067610 10.142991 0.000000 0.000000 0.000000 2.250900 8.658814 1.007152 -1.267075 1.251113 3.568550 0.000000 0.000000 0.000000 -1.210257 1.238929 3.593119 -7.064483 -0.929431 -9.644148 -1.210257 1.238929 3.593119 -9.432475 5.966008 -0.416627 -38.492229 26.822524 29.642463 179.999578 -84.569855 -179.999768 -1.210257 1.238929 3.593119 0.391917 6.551424 0.883800 55.428492 0.507764 41.187782 0.000053 87.772992 0.000048 0.000000 0.000000 0.000000 -8.143708 3.958382 -49.822240 5.786885 7.735318 43.636510 0.000000 0.000000 0.000000 1.846552 -6.129484 -7.064983 -0.336552 0.211669 28.386638 
-7.570813 -1.799042 -35.288774 0.247865 -2.066325 9.929125 0.000000 0.000000 0.000000 2.921137 9.143596 1.426299 -1.292416 1.324571 3.329265 0.000000 0.000000 0.000000 -1.237400 1.308524 3.357384 -6.904091 -0.876519 -9.633259 -1.237400 1.308524 3.357384 -10.095332 6.258500 -0.479985 -38.759712 26.153925 28.898531 -179.998719 -84.904328 179.998584 -1.237400 1.308524 3.357384 1.515365 7.009680 1.029961 57.327268 0.247888 40.738679 -0.000299 84.847048 -0.000301 0.000000 0.000000 0.000000 -8.575717 4.964062 -48.815152 4.905057 6.817966 45.225921 0.000000 0.000000 0.000000 2.063415 -5.511172 -6.605743 -0.805319 -0.432042 28.560540 
-7.413577 -1.775566 -34.477033 0.134257 -2.336398 9.742909 0.000000 0.000000 0.000000 3.235976 9.529521 1.899307 -1.404319 1.381523 2.953324 0.000000 0.000000 0.000000 -1.354154 1.364082 2.985279 -6.490170 -0.815259 -9.082756 -1.354154 1.364082 2.985279 -10.844659 6.272509 -0.500850 -39.655615 25.376702 27.730008 179.999996 -85.181018 -179.999885 -1.354154 1.364082 2.985279 3.916874 7.373483 1.294031 57.939660 -0.362023 40.772079 -0.000294 82.656955 -0.000329 0.000000 0.000000 0.000000 -9.199592 5.823590 -46.907950 3.264967 4.896091 45.196706 0.000000 0.000000 0.000000 2.045576 -4.680094 -6.287326 -1.302052 -1.004917 28.784886 
-7.170822 -1.554863 -33.423605 0.210346 -2.302246 9.627283 0.000000 0.000000 0.000000 3.163822 9.236574 2.353342 -1.411697 1.339786 2.696959 0.000000 0.000000 0.000000 -1.368354 1.322295 2.728051 -6.077666 -0.752913 -7.975505 -1.368354 1.322295 2.728051 -11.681444 5.999301 -0.468402 -41.423761 24.083206 26.104727 -179.999377 -85.730930 179.999415 -1.368354 1.322295 2.728051 6.802071 7.499114 1.587103 57.370820 -0.837448 41.290925 -0.000115 81.079556 -0.000129 0.000000 0.000000 0.000000 -9.854260 5.567784 -44.444784 2.095092 3.116331 43.647330 0.000000 0.000000 0.000000 1.527223 -4.454632 -7.125707 -1.214720 -0.856041 30.501750 
-6.892196 -1.249740 -32.336214 0.732337 -1.868525 9.151248 0.000000 0.000000 0.000000 2.451068 8.074545 3.040897 -1.266255 1.172908 2.698065 0.000000 0.000000 0.000000 -1.230640 1.156265 2.722460 -5.559597 -0.673238 -6.411440 -1.230640 1.156265 2.722460 -12.299236 5.171435 -0.325256 -43.625078 21.808004 24.682312 179.998584 -86.830571 -179.998524 -1.230640 1.156265 2.722460 9.194850 7.374175 1.802712 56.424638 -0.768435 42.035972 -0.000063 79.527834 -0.000067 0.000000 0.000000 0.000000 -10.987724 4.774483 -41.892966 2.177948 1.999911 41.737230 0.000000 0.000000 0.000000 -0.179884 -4.234923 -10.229875 -0.182874 -0.411026 35.900453 
-6.689666 -1.186561 -31.405401 2.037448 -1.257673 7.890995 0.000000 0.000000 0.000000 0.721169 6.382613 4.269484 -1.089342 0.919101 2.841319 0.000000 0.000000 0.000000 -1.062374 0.904636 2.856746 -4.762578 -0.557653 -4.352426 -1.062374 0.904636 2.856746 -12.442223 3.467895 -0.003533 -45.290337 18.548308 24.153333 179.997656 -88.266864 -179.997651 -1.062374 0.904636 2.856746 10.672512 6.938846 1.872843 55.668993 0.043442 42.935018 -0.000058 77.839191 -0.000054 0.000000 0.000000 0.000000 -12.905853 4.319819 -39.068023 2.909523 1.539699 40.358601 0.000000 0.000000 0.000000 -3.337425 -3.490425 -14.966066 1.331359 -0.643556 43.804832 
-6.571806 -1.412247 -30.515005 4.072711 -0.412625 6.165525 0.000000 0.000000 0.000000 -1.789641 4.579462 5.897715 -0.997135 0.636445 2.943068 0.000000 0.000000 0.000000 -0.979467 0.625854 2.951137 -3.810066 -0.406603 -1.799028 -0.979467 0.625854 2.951137 -12.446412 0.897212 0.506042 -45.571014 14.732121 24.407458 179.992708 -89.377692 -179.992741 -0.979467 0.625854 2.951137 11.541152 6.063841 1.791600 54.844591 1.547365 44.130968 0.000010 76.618931 0.000041 0.000000 0.000000 0.000000 -15.041382 3.815948 -36.165782 3.236435 1.802202 39.921692 0.000000 0.000000 0.000000 -6.792064 -2.696998 -20.285363 2.343234 -1.198626 52.222223 
-6.442121 -1.684364 -29.493406 6.204990 0.761240 4.676543 0.000000 0.000000 0.000000 -4.248231 2.916699 7.418535 -0.984254 0.371934 2.983840 0.000000 0.000000 0.000000 -0.975001 0.366164 2.987419 -2.932743 -0.259315 0.664614 -0.975001 0.366164 2.987419 -12.730277 -2.089314 1.119658 -44.502601 10.563881 24.757157 -179.348380 -89.833118 179.348322 -0.975001 0.366164 2.987419 12.390703 4.780596 1.610966 53.357885 3.362047 45.459424 0.000019 76.630556 -0.000002 0.000000 0.000000 0.000000 -16.725778 2.902114 -33.335215 2.688885 2.462651 39.764135 0.000000 0.000000 0.000000 -9.940557 -2.005570 -27.478309 1.796304 -1.739431 62.792892 
